<mxfile host="app.diagrams.net" modified="2021-05-25T11:58:01.957Z" agent="5.0 (Windows NT 10.0; Win64; x64) AppleWebKit/537.36 (KHTML, like Gecko) Chrome/90.0.4430.212 Safari/537.36" etag="OQbjyZy2_UsmhQ8yWRLY" version="14.7.0" type="github">
  <diagram id="DMizLd6jPB5jcuzPNhlE" name="Page-1">
    <mxGraphModel dx="865" dy="514" grid="1" gridSize="10" guides="1" tooltips="1" connect="1" arrows="1" fold="1" page="1" pageScale="1" pageWidth="850" pageHeight="1100" math="0" shadow="0">
      <root>
        <mxCell id="0" />
        <mxCell id="1" parent="0" />
        <mxCell id="_9rBPJklPrJXGRunSFTt-1" value="" style="rounded=0;whiteSpace=wrap;html=1;fontFamily=Noto Serif SC;fontSource=https%3A%2F%2Ffonts.googleapis.com%2Fcss%3Ffamily%3DNoto%2BSerif%2BSC;" parent="1" vertex="1">
          <mxGeometry x="160" y="180" width="510" height="60" as="geometry" />
        </mxCell>
        <mxCell id="_9rBPJklPrJXGRunSFTt-2" value="" style="rounded=0;whiteSpace=wrap;html=1;fontFamily=Noto Serif SC;fontSource=https%3A%2F%2Ffonts.googleapis.com%2Fcss%3Ffamily%3DNoto%2BSerif%2BSC;" parent="1" vertex="1">
          <mxGeometry x="160" y="260" width="510" height="220" as="geometry" />
        </mxCell>
        <mxCell id="_9rBPJklPrJXGRunSFTt-3" value="" style="rounded=0;whiteSpace=wrap;html=1;align=left;spacingTop=10;fontFamily=Noto Serif SC;fontSource=https%3A%2F%2Ffonts.googleapis.com%2Fcss%3Ffamily%3DNoto%2BSerif%2BSC;" parent="1" vertex="1">
          <mxGeometry x="160" y="500" width="510" height="60" as="geometry" />
        </mxCell>
        <mxCell id="_9rBPJklPrJXGRunSFTt-4" value="前端UI" style="text;html=1;strokeColor=none;fillColor=none;align=center;verticalAlign=middle;whiteSpace=wrap;rounded=0;fontFamily=Noto Serif SC;fontSource=https%3A%2F%2Ffonts.googleapis.com%2Fcss%3Ffamily%3DNoto%2BSerif%2BSC;" parent="1" vertex="1">
          <mxGeometry x="162" y="200" width="60" height="20" as="geometry" />
        </mxCell>
        <mxCell id="_9rBPJklPrJXGRunSFTt-5" value="服务层" style="text;html=1;strokeColor=none;fillColor=none;align=center;verticalAlign=middle;whiteSpace=wrap;rounded=0;fontFamily=Noto Serif SC;fontSource=https%3A%2F%2Ffonts.googleapis.com%2Fcss%3Ffamily%3DNoto%2BSerif%2BSC;" parent="1" vertex="1">
          <mxGeometry x="170" y="270" width="40" height="20" as="geometry" />
        </mxCell>
        <mxCell id="_9rBPJklPrJXGRunSFTt-6" value="前端可视化" style="rounded=0;whiteSpace=wrap;html=1;fontFamily=Noto Serif SC;fontSource=https%3A%2F%2Ffonts.googleapis.com%2Fcss%3Ffamily%3DNoto%2BSerif%2BSC;" parent="1" vertex="1">
          <mxGeometry x="230" y="190" width="410" height="40" as="geometry" />
        </mxCell>
        <mxCell id="_9rBPJklPrJXGRunSFTt-7" value="HTTP接口" style="rounded=0;whiteSpace=wrap;html=1;fontFamily=Noto Serif SC;fontSource=https%3A%2F%2Ffonts.googleapis.com%2Fcss%3Ffamily%3DNoto%2BSerif%2BSC;" parent="1" vertex="1">
          <mxGeometry x="230" y="270" width="220" height="30" as="geometry" />
        </mxCell>
        <mxCell id="_9rBPJklPrJXGRunSFTt-9" value="持久层接口" style="rounded=0;whiteSpace=wrap;html=1;fontFamily=Noto Serif SC;fontSource=https%3A%2F%2Ffonts.googleapis.com%2Fcss%3Ffamily%3DNoto%2BSerif%2BSC;" parent="1" vertex="1">
          <mxGeometry x="230" y="430" width="220" height="30" as="geometry" />
        </mxCell>
        <mxCell id="_9rBPJklPrJXGRunSFTt-10" value="比特币节点" style="rounded=0;whiteSpace=wrap;html=1;fontFamily=Noto Serif SC;fontSource=https%3A%2F%2Ffonts.googleapis.com%2Fcss%3Ffamily%3DNoto%2BSerif%2BSC;" parent="1" vertex="1">
          <mxGeometry x="480" y="270" width="80" height="60" as="geometry" />
        </mxCell>
        <mxCell id="_9rBPJklPrJXGRunSFTt-11" value="合约信息获取" style="rounded=0;whiteSpace=wrap;html=1;fontFamily=Noto Serif SC;fontSource=https%3A%2F%2Ffonts.googleapis.com%2Fcss%3Ffamily%3DNoto%2BSerif%2BSC;" parent="1" vertex="1">
          <mxGeometry x="570" y="270" width="80" height="140" as="geometry" />
        </mxCell>
        <mxCell id="_9rBPJklPrJXGRunSFTt-12" value="语义分析模型" style="rounded=0;whiteSpace=wrap;html=1;fontFamily=Noto Serif SC;fontSource=https%3A%2F%2Ffonts.googleapis.com%2Fcss%3Ffamily%3DNoto%2BSerif%2BSC;" parent="1" vertex="1">
          <mxGeometry x="480" y="350" width="80" height="60" as="geometry" />
        </mxCell>
        <mxCell id="_9rBPJklPrJXGRunSFTt-13" value="数据IO" style="rounded=0;whiteSpace=wrap;html=1;fontFamily=Noto Serif SC;fontSource=https%3A%2F%2Ffonts.googleapis.com%2Fcss%3Ffamily%3DNoto%2BSerif%2BSC;" parent="1" vertex="1">
          <mxGeometry x="480" y="430" width="170" height="30" as="geometry" />
        </mxCell>
        <mxCell id="_9rBPJklPrJXGRunSFTt-14" value="智能合约分析服务" style="rounded=0;whiteSpace=wrap;html=1;fontFamily=Noto Serif SC;fontSource=https%3A%2F%2Ffonts.googleapis.com%2Fcss%3Ffamily%3DNoto%2BSerif%2BSC;" parent="1" vertex="1">
          <mxGeometry x="310" y="320" width="60" height="90" as="geometry" />
        </mxCell>
        <mxCell id="_9rBPJklPrJXGRunSFTt-15" value="比特币信息分析服务" style="rounded=0;whiteSpace=wrap;html=1;fontFamily=Noto Serif SC;fontSource=https%3A%2F%2Ffonts.googleapis.com%2Fcss%3Ffamily%3DNoto%2BSerif%2BSC;" parent="1" vertex="1">
          <mxGeometry x="390" y="320" width="60" height="90" as="geometry" />
        </mxCell>
        <mxCell id="_9rBPJklPrJXGRunSFTt-16" value="用户信息服务" style="rounded=0;whiteSpace=wrap;html=1;fontFamily=Noto Serif SC;fontSource=https%3A%2F%2Ffonts.googleapis.com%2Fcss%3Ffamily%3DNoto%2BSerif%2BSC;" parent="1" vertex="1">
          <mxGeometry x="230" y="320" width="60" height="90" as="geometry" />
        </mxCell>
        <mxCell id="_9rBPJklPrJXGRunSFTt-17" value="数据库" style="text;html=1;strokeColor=none;fillColor=none;align=center;verticalAlign=middle;whiteSpace=wrap;rounded=0;fontFamily=Noto Serif SC;fontSource=https%3A%2F%2Ffonts.googleapis.com%2Fcss%3Ffamily%3DNoto%2BSerif%2BSC;" parent="1" vertex="1">
          <mxGeometry x="170" y="520" width="40" height="20" as="geometry" />
        </mxCell>
        <mxCell id="_9rBPJklPrJXGRunSFTt-18" value="用户信息库" style="rounded=0;whiteSpace=wrap;html=1;fontFamily=Noto Serif SC;fontSource=https%3A%2F%2Ffonts.googleapis.com%2Fcss%3Ffamily%3DNoto%2BSerif%2BSC;" parent="1" vertex="1">
          <mxGeometry x="230" y="510" width="110" height="40" as="geometry" />
        </mxCell>
        <mxCell id="_9rBPJklPrJXGRunSFTt-19" value="智能合约信息库" style="rounded=0;whiteSpace=wrap;html=1;fontFamily=Noto Serif SC;fontSource=https%3A%2F%2Ffonts.googleapis.com%2Fcss%3Ffamily%3DNoto%2BSerif%2BSC;" parent="1" vertex="1">
          <mxGeometry x="360" y="510" width="110" height="40" as="geometry" />
        </mxCell>
        <mxCell id="_9rBPJklPrJXGRunSFTt-20" value="比特币信息库" style="rounded=0;whiteSpace=wrap;html=1;fontFamily=Noto Serif SC;fontSource=https%3A%2F%2Ffonts.googleapis.com%2Fcss%3Ffamily%3DNoto%2BSerif%2BSC;" parent="1" vertex="1">
          <mxGeometry x="490" y="510" width="110" height="40" as="geometry" />
        </mxCell>
        <mxCell id="K2Va27fJaUlFHqxrEsbe-1" value="" style="endArrow=classic;startArrow=classic;html=1;exitX=0.5;exitY=0;exitDx=0;exitDy=0;entryX=0.5;entryY=1;entryDx=0;entryDy=0;rounded=0;fontFamily=Noto Serif SC;fontSource=https%3A%2F%2Ffonts.googleapis.com%2Fcss%3Ffamily%3DNoto%2BSerif%2BSC;" parent="1" source="_9rBPJklPrJXGRunSFTt-7" target="_9rBPJklPrJXGRunSFTt-6" edge="1">
          <mxGeometry width="50" height="50" relative="1" as="geometry">
            <mxPoint x="400" y="140" as="sourcePoint" />
            <mxPoint x="450" y="90" as="targetPoint" />
            <Array as="points">
              <mxPoint x="340" y="250" />
              <mxPoint x="435" y="250" />
            </Array>
          </mxGeometry>
        </mxCell>
        <mxCell id="K2Va27fJaUlFHqxrEsbe-3" value="" style="endArrow=classic;html=1;entryX=0.259;entryY=0.995;entryDx=0;entryDy=0;exitX=0.713;exitY=-0.006;exitDx=0;exitDy=0;exitPerimeter=0;entryPerimeter=0;fontFamily=Noto Serif SC;fontSource=https%3A%2F%2Ffonts.googleapis.com%2Fcss%3Ffamily%3DNoto%2BSerif%2BSC;" parent="1" source="_9rBPJklPrJXGRunSFTt-3" target="_9rBPJklPrJXGRunSFTt-13" edge="1">
          <mxGeometry width="50" height="50" relative="1" as="geometry">
            <mxPoint x="530" y="500" as="sourcePoint" />
            <mxPoint x="580" y="450" as="targetPoint" />
          </mxGeometry>
        </mxCell>
        <mxCell id="K2Va27fJaUlFHqxrEsbe-4" value="" style="endArrow=classic;html=1;exitX=0.722;exitY=1.012;exitDx=0;exitDy=0;exitPerimeter=0;entryX=0.868;entryY=-0.007;entryDx=0;entryDy=0;entryPerimeter=0;fontFamily=Noto Serif SC;fontSource=https%3A%2F%2Ffonts.googleapis.com%2Fcss%3Ffamily%3DNoto%2BSerif%2BSC;" parent="1" source="_9rBPJklPrJXGRunSFTt-13" target="_9rBPJklPrJXGRunSFTt-3" edge="1">
          <mxGeometry width="50" height="50" relative="1" as="geometry">
            <mxPoint x="350" y="450" as="sourcePoint" />
            <mxPoint x="603" y="497" as="targetPoint" />
            <Array as="points" />
          </mxGeometry>
        </mxCell>
        <mxCell id="K2Va27fJaUlFHqxrEsbe-5" value="" style="endArrow=classic;startArrow=classic;html=1;entryX=0.5;entryY=1;entryDx=0;entryDy=0;exitX=0.353;exitY=-0.022;exitDx=0;exitDy=0;exitPerimeter=0;fontFamily=Noto Serif SC;fontSource=https%3A%2F%2Ffonts.googleapis.com%2Fcss%3Ffamily%3DNoto%2BSerif%2BSC;" parent="1" source="_9rBPJklPrJXGRunSFTt-3" target="_9rBPJklPrJXGRunSFTt-9" edge="1">
          <mxGeometry width="50" height="50" relative="1" as="geometry">
            <mxPoint x="310" y="510" as="sourcePoint" />
            <mxPoint x="360" y="460" as="targetPoint" />
          </mxGeometry>
        </mxCell>
        <mxCell id="K2Va27fJaUlFHqxrEsbe-7" value="" style="endArrow=classic;startArrow=classic;html=1;entryX=0.5;entryY=0;entryDx=0;entryDy=0;exitX=0.138;exitY=0.981;exitDx=0;exitDy=0;exitPerimeter=0;fontFamily=Noto Serif SC;fontSource=https%3A%2F%2Ffonts.googleapis.com%2Fcss%3Ffamily%3DNoto%2BSerif%2BSC;" parent="1" source="_9rBPJklPrJXGRunSFTt-7" target="_9rBPJklPrJXGRunSFTt-16" edge="1">
          <mxGeometry width="50" height="50" relative="1" as="geometry">
            <mxPoint x="170" y="400" as="sourcePoint" />
            <mxPoint x="220" y="350" as="targetPoint" />
          </mxGeometry>
        </mxCell>
        <mxCell id="K2Va27fJaUlFHqxrEsbe-8" value="" style="endArrow=classic;startArrow=classic;html=1;exitX=0.5;exitY=0;exitDx=0;exitDy=0;entryX=0.5;entryY=1;entryDx=0;entryDy=0;fontFamily=Noto Serif SC;fontSource=https%3A%2F%2Ffonts.googleapis.com%2Fcss%3Ffamily%3DNoto%2BSerif%2BSC;" parent="1" source="_9rBPJklPrJXGRunSFTt-14" target="_9rBPJklPrJXGRunSFTt-7" edge="1">
          <mxGeometry width="50" height="50" relative="1" as="geometry">
            <mxPoint x="370" y="350" as="sourcePoint" />
            <mxPoint x="420" y="300" as="targetPoint" />
          </mxGeometry>
        </mxCell>
        <mxCell id="K2Va27fJaUlFHqxrEsbe-9" value="" style="endArrow=classic;startArrow=classic;html=1;exitX=0.5;exitY=0;exitDx=0;exitDy=0;fontFamily=Noto Serif SC;fontSource=https%3A%2F%2Ffonts.googleapis.com%2Fcss%3Ffamily%3DNoto%2BSerif%2BSC;" parent="1" source="_9rBPJklPrJXGRunSFTt-15" edge="1">
          <mxGeometry width="50" height="50" relative="1" as="geometry">
            <mxPoint x="370" y="350" as="sourcePoint" />
            <mxPoint x="420" y="300" as="targetPoint" />
          </mxGeometry>
        </mxCell>
        <mxCell id="K2Va27fJaUlFHqxrEsbe-10" value="" style="endArrow=classic;startArrow=classic;html=1;exitX=0.5;exitY=1;exitDx=0;exitDy=0;entryX=0.134;entryY=0.054;entryDx=0;entryDy=0;entryPerimeter=0;fontFamily=Noto Serif SC;fontSource=https%3A%2F%2Ffonts.googleapis.com%2Fcss%3Ffamily%3DNoto%2BSerif%2BSC;" parent="1" source="_9rBPJklPrJXGRunSFTt-16" target="_9rBPJklPrJXGRunSFTt-9" edge="1">
          <mxGeometry width="50" height="50" relative="1" as="geometry">
            <mxPoint x="370" y="490" as="sourcePoint" />
            <mxPoint x="420" y="440" as="targetPoint" />
          </mxGeometry>
        </mxCell>
        <mxCell id="K2Va27fJaUlFHqxrEsbe-11" value="" style="endArrow=classic;startArrow=classic;html=1;exitX=0.5;exitY=1;exitDx=0;exitDy=0;entryX=0.5;entryY=0;entryDx=0;entryDy=0;fontFamily=Noto Serif SC;fontSource=https%3A%2F%2Ffonts.googleapis.com%2Fcss%3Ffamily%3DNoto%2BSerif%2BSC;" parent="1" source="_9rBPJklPrJXGRunSFTt-14" target="_9rBPJklPrJXGRunSFTt-9" edge="1">
          <mxGeometry width="50" height="50" relative="1" as="geometry">
            <mxPoint x="370" y="490" as="sourcePoint" />
            <mxPoint x="420" y="440" as="targetPoint" />
          </mxGeometry>
        </mxCell>
        <mxCell id="K2Va27fJaUlFHqxrEsbe-12" value="" style="endArrow=classic;startArrow=classic;html=1;exitX=0.884;exitY=0.016;exitDx=0;exitDy=0;exitPerimeter=0;fontFamily=Noto Serif SC;fontSource=https%3A%2F%2Ffonts.googleapis.com%2Fcss%3Ffamily%3DNoto%2BSerif%2BSC;" parent="1" source="_9rBPJklPrJXGRunSFTt-9" edge="1">
          <mxGeometry width="50" height="50" relative="1" as="geometry">
            <mxPoint x="370" y="490" as="sourcePoint" />
            <mxPoint x="424" y="410" as="targetPoint" />
          </mxGeometry>
        </mxCell>
        <mxCell id="K2Va27fJaUlFHqxrEsbe-13" value="" style="endArrow=classic;html=1;exitX=0.5;exitY=1;exitDx=0;exitDy=0;entryX=0.5;entryY=0;entryDx=0;entryDy=0;fontFamily=Noto Serif SC;fontSource=https%3A%2F%2Ffonts.googleapis.com%2Fcss%3Ffamily%3DNoto%2BSerif%2BSC;" parent="1" source="_9rBPJklPrJXGRunSFTt-10" target="_9rBPJklPrJXGRunSFTt-12" edge="1">
          <mxGeometry width="50" height="50" relative="1" as="geometry">
            <mxPoint x="270" y="420" as="sourcePoint" />
            <mxPoint x="320" y="370" as="targetPoint" />
          </mxGeometry>
        </mxCell>
        <mxCell id="K2Va27fJaUlFHqxrEsbe-15" value="" style="endArrow=classic;html=1;exitX=0.5;exitY=1;exitDx=0;exitDy=0;fontFamily=Noto Serif SC;fontSource=https%3A%2F%2Ffonts.googleapis.com%2Fcss%3Ffamily%3DNoto%2BSerif%2BSC;" parent="1" source="_9rBPJklPrJXGRunSFTt-11" edge="1">
          <mxGeometry width="50" height="50" relative="1" as="geometry">
            <mxPoint x="540" y="350" as="sourcePoint" />
            <mxPoint x="610" y="429" as="targetPoint" />
          </mxGeometry>
        </mxCell>
        <mxCell id="K2Va27fJaUlFHqxrEsbe-16" value="" style="endArrow=classic;startArrow=classic;html=1;exitX=0.236;exitY=-0.025;exitDx=0;exitDy=0;entryX=0.5;entryY=1;entryDx=0;entryDy=0;exitPerimeter=0;fontFamily=Noto Serif SC;fontSource=https%3A%2F%2Ffonts.googleapis.com%2Fcss%3Ffamily%3DNoto%2BSerif%2BSC;" parent="1" source="_9rBPJklPrJXGRunSFTt-13" target="_9rBPJklPrJXGRunSFTt-12" edge="1">
          <mxGeometry width="50" height="50" relative="1" as="geometry">
            <mxPoint x="500" y="440" as="sourcePoint" />
            <mxPoint x="550" y="390" as="targetPoint" />
          </mxGeometry>
        </mxCell>
      </root>
    </mxGraphModel>
  </diagram>
</mxfile>
